<?xml version="1.0" encoding="UTF-8"?>
<svg id="Layer_1" xmlns="http://www.w3.org/2000/svg" version="1.1" viewBox="0 0 512 512">
  <!-- Generator: Adobe Illustrator 29.5.1, SVG Export Plug-In . SVG Version: 2.1.0 Build 141)  -->
  <path d="M409.86,329.93h-177.43c-8.13,0-14.79-6.65-14.79-14.79V78.57c0-8.13,6.65-14.79,14.79-14.79h129.47l62.75,62.75v188.61c0,8.13-6.65,14.79-14.79,14.79ZM232.43,374.29h177.43c32.62,0,59.14-26.52,59.14-59.14V126.53c0-11.74-4.71-23.01-13.03-31.33l-62.65-62.75c-8.32-8.32-19.59-13.03-31.33-13.03h-129.56c-32.62,0-59.14,26.52-59.14,59.14v236.57c0,32.62,26.52,59.14,59.14,59.14ZM114.14,137.71c-32.62,0-59.14,26.52-59.14,59.14v236.57c0,32.62,26.52,59.14,59.14,59.14h177.43c32.62,0,59.14-26.52,59.14-59.14v-29.57h-44.36v29.57c0,8.13-6.65,14.79-14.79,14.79H114.14c-8.13,0-14.79-6.65-14.79-14.79v-236.57c0-8.13,6.65-14.79,14.79-14.79h29.57v-44.36h-29.57Z"/>
</svg>