<svg xmlns="http://www.w3.org/2000/svg" version="1.1" viewBox="0 0 512 512">
  <path fill="white" d="M258,108c10.5,0,20.3,5.6,25.6,14.7l160.3,273.1c5.4,9.2,5.4,20.6.1,29.8s-15.1,14.9-25.8,14.9H97.7c-10.6,0-20.5-5.7-25.8-14.9s-5.2-20.6.1-29.8L232.4,122.7c5.3-9.1,15.1-14.7,25.6-14.7Z"/>
  <path d="M256,32c14.2,0,27.3,7.5,34.5,19.8l216,368c7.3,12.4,7.3,27.7.2,40.1s-20.4,20.1-34.7,20.1H40c-14.3,0-27.6-7.7-34.7-20.1s-7-27.8.2-40.1L221.5,51.8c7.2-12.3,20.3-19.8,34.5-19.8ZM256,160c-13.3,0-24,10.7-24,24v112c0,13.3,10.7,24,24,24s24-10.7,24-24v-112c0-13.3-10.7-24-24-24ZM288,384c0-17.7-14.3-32-32-32s-32,14.3-32,32,14.3,32,32,32,32-14.3,32-32Z"/>
</svg>