<?xml version="1.0" encoding="UTF-8"?>
<svg id="Layer_1" xmlns="http://www.w3.org/2000/svg" version="1.1" viewBox="0 0 512 512">
  <!-- Generator: Adobe Illustrator 29.6.1, SVG Export Plug-In . SVG Version: 2.1.1 Build 9)  -->
  <path d="M95.87,199.35c8.17-23.14,21.44-44.9,40.13-63.48,66.35-66.35,173.88-66.35,240.23,0l18.15,18.26h-36.41c-18.79,0-33.97,15.18-33.97,33.97s15.18,33.97,33.97,33.97h118.79c18.79,0,33.97-15.18,33.97-33.97v-118.89c0-18.79-15.18-33.97-33.97-33.97s-33.97,15.18-33.97,33.97v37.37l-18.58-18.68C331.32-4.99,180.79-4.99,87.91,87.89c-25.9,25.9-44.58,56.37-56.05,88.96-6.26,17.73,3.08,37.05,20.7,43.31,17.62,6.26,37.05-3.08,43.31-20.7v-.11ZM25.7,291.39c-5.31,1.59-10.4,4.46-14.54,8.7-4.25,4.25-7.11,9.34-8.6,14.86-.32,1.27-.64,2.65-.85,4.03-.32,1.8-.42,3.61-.42,5.41v118.47c0,18.79,15.18,33.97,33.97,33.97s33.97-15.18,33.97-33.97v-37.26l18.68,18.58h0c92.88,92.78,243.41,92.78,336.19,0,25.9-25.9,44.69-56.37,56.16-88.85,6.26-17.73-3.08-37.05-20.7-43.31-17.62-6.26-37.05,3.08-43.31,20.7-8.17,23.14-21.44,44.9-40.13,63.48-66.35,66.35-173.88,66.35-240.23,0l-.11-.11-18.15-18.15h36.52c18.79,0,33.97-15.18,33.97-33.97s-15.18-33.97-33.97-33.97H35.68c-1.7,0-3.4.11-5.1.32s-3.29.53-4.88,1.06Z"/>
</svg>