<?xml version="1.0" encoding="UTF-8"?>
<svg id="Layer_1" xmlns="http://www.w3.org/2000/svg" version="1.1" viewBox="0 0 512 512">
  <!-- Generator: Adobe Illustrator 29.5.1, SVG Export Plug-In . SVG Version: 2.1.0 Build 141)  -->
  <path d="M412,219"/>
  <path d="M496.28,249.3h-97.77l-23-73.41c-2.2-8.17-10-13.78-18.55-13.46-8.64.29-15.93,6.4-17.54,14.7l-37.82,194.58L261.7,16.11c-1.02-9.07-8.79-15.97-18.14-16.11h-.28c-9.22,0-17.06,6.64-18.33,15.59l-37.32,261.48-17.26-149.22c-1.02-8.82-8.43-15.61-17.5-16.04-9.08-.35-17.13,5.63-19,14.3l-23.72,109-4.56-25.33c-1.4-7.84-7.91-13.87-16-14.82-8.06-.92-15.88,3.37-19.17,10.65l-21.12,46.71h-30.78c-10.22,0-18.51,8.1-18.51,18.08s8.29,18.08,18.51,18.08h42.83c7.34,0,13.97-4.23,16.94-10.78l1.37-3.04,10.53,58.48c1.54,8.53,9.05,14.8,17.91,14.95,8.79.36,16.6-5.84,18.44-14.31l19.84-91.16,20.93,180.97c1.04,9.06,8.84,15.93,18.15,16.05,9.24.12,17.29-6.56,18.58-15.59l37.06-259.57,37.17,331.43c1,8.9,8.52,15.76,17.68,16.11h.74c8.85,0,16.51-6.15,18.18-14.72l44.69-229.88v.86c0,8.5,7.05,15.37,15.74,15.37h120.98c8.7,0,15.74-6.89,15.74-15.37v-3.6c0-8.5-7.05-15.37-15.74-15.37h.02Z"/>
</svg>