<?xml version="1.0" encoding="UTF-8"?>
<svg id="Layer_1" xmlns="http://www.w3.org/2000/svg" version="1.1" viewBox="0 0 512 512">
  <!-- Generator: Adobe Illustrator 29.5.1, SVG Export Plug-In . SVG Version: 2.1.0 Build 141)  -->
  <path d="M174.93,38.44l-6.57,13.06h-87.64c-16.16,0-29.21,13.06-29.21,29.21s13.06,29.21,29.21,29.21h350.57c16.16,0,29.21-13.06,29.21-29.21s-13.06-29.21-29.21-29.21h-87.64l-6.57-13.06c-4.93-9.95-15.06-16.16-26.11-16.16h-109.92c-11.05,0-21.18,6.21-26.11,16.16ZM431.29,139.14H80.71l19.35,309.49c1.46,23.1,20.63,41.08,43.73,41.08h224.4c23.1,0,42.27-17.99,43.73-41.08l19.35-309.49Z"/>
</svg>