<?xml version="1.0" encoding="UTF-8"?>
<svg id="Layer_1" xmlns="http://www.w3.org/2000/svg" version="1.1" viewBox="0 0 512 512">
  <!-- Generator: Adobe Illustrator 29.6.1, SVG Export Plug-In . SVG Version: 2.1.1 Build 9)  -->
  <path d="M106.67,0C71.33,0,42.67,28.67,42.67,64v384c0,35.33,28.67,64,64,64h42.67c35.33,0,64-28.67,64-64V64C213.33,28.67,184.67,0,149.33,0h-42.67ZM362.67,0c-35.33,0-64,28.67-64,64v384c0,35.33,28.67,64,64,64h42.67c35.33,0,64-28.67,64-64V64c0-35.33-28.67-64-64-64h-42.67Z"/>
</svg>