<?xml version="1.0" encoding="UTF-8"?>
<svg id="Layer_1" xmlns="http://www.w3.org/2000/svg" version="1.1" viewBox="0 0 24 24">
  <!-- Generator: Adobe Illustrator 29.6.1, SVG Export Plug-In . SVG Version: 2.1.1 Build 9)  -->
  <path d="M10.5,17c-.7,0-1.29-.24-1.78-.73s-.73-1.08-.73-1.78.24-1.29.73-1.78,1.08-.73,1.78-.73c.28,0,.55.04.8.13s.48.21.7.38v-5.5h4v2h-3v5.5c0,.7-.24,1.29-.73,1.78s-1.08.73-1.78.73ZM12,22c-1.38,0-2.68-.26-3.9-.79s-2.28-1.24-3.18-2.14-1.61-1.96-2.14-3.18-.79-2.52-.79-3.9h2c0,1.1.21,2.14.63,3.11s.99,1.83,1.71,2.55,1.58,1.3,2.55,1.73,2.01.64,3.11.64c2.23,0,4.13-.78,5.68-2.33s2.33-3.44,2.33-5.68-.78-4.13-2.33-5.68-3.44-2.33-5.68-2.33c-1.48,0-2.83.36-4.04,1.09s-2.16,1.69-2.86,2.89h2.9v2H2V4h2v2c.92-1.22,2.07-2.19,3.45-2.91,1.38-.73,2.9-1.09,4.55-1.09,1.38,0,2.68.26,3.9.79s2.28,1.24,3.18,2.14,1.61,1.96,2.14,3.18.79,2.52.79,3.9-.26,2.68-.79,3.9-1.24,2.28-2.14,3.18-1.96,1.61-3.18,2.14-2.52.79-3.9.79Z"/>
</svg>