<?xml version="1.0" encoding="UTF-8"?>
<svg id="Layer_1" xmlns="http://www.w3.org/2000/svg" version="1.1" viewBox="0 0 512 512">
  <!-- Generator: Adobe Illustrator 29.6.1, SVG Export Plug-In . SVG Version: 2.1.1 Build 9)  -->
  <path d="M416,336.01h-192c-8.8,0-16-7.2-16-16V64.01c0-8.8,7.2-16,16-16h140.1l67.9,67.9v204.1c0,8.8-7.2,16-16,16h0ZM224,384.02h192c35.3,0,64-28.7,64-64V115.91c0-12.7-5.1-24.9-14.1-33.9L398.11,14.1c-9-9-21.2-14.1-33.9-14.1h-140.2c-35.3,0-64,28.7-64,64v256c0,35.3,28.7,64,64,64v.02ZM96,128.01c-35.3,0-64,28.7-64,64v256c0,35.3,28.7,64,64,64h192c35.3,0,64-28.7,64-64v-32h-48v32c0,8.8-7.2,16-16,16H96c-8.8,0-16-7.2-16-16V192c0-8.8,7.2-16,16-16h32v-48h-32,0Z"/>
</svg>